<?xml version="1.0" encoding="utf-8"?>
<!-- Generator: Adobe Illustrator 16.0.0, SVG Export Plug-In . SVG Version: 6.00 Build 0)  -->
<!DOCTYPE svg PUBLIC "-//W3C//DTD SVG 1.1//EN" "http://www.w3.org/Graphics/SVG/1.1/DTD/svg11.dtd">
<svg version="1.1" id="logoBig" xmlns="http://www.w3.org/2000/svg" xmlns:xlink="http://www.w3.org/1999/xlink" x="0px" y="0px"
	 viewBox="0 0 890 320" enable-background="new 0 0 890 320" xml:space="preserve">
<g>
	<path fill="#090909" d="M167.844,262.74c-2.286,0.305-3.559,0.616-4.833,0.621
		c-8.492,0.035-16.987,0.106-25.476-0.096c-1.605-0.038-4.014-0.82-4.622-1.998c-1.983-3.837-4.349-3.37-7.759-2.158
		c-49.505,17.6-101.582-18.518-101.588-71.241c-0.004-32.479,15.673-56.745,45.289-69.938c28.816-12.835,56.668-8.544,80.7,12.115
		c32.055,27.556,35.247,74.009,8.073,106.634c-2.273,2.729-2.203,4.75-0.533,7.514C160.67,250.113,164.045,256.154,167.844,262.74z
		 M139.496,213.422c11.863-13.349,11.916-39.907-2.242-56.691c-17.324-20.535-46.139-23.863-67.255-7.733
		c-20.445,15.618-24.897,45.091-10.163,66.233c13.857,19.884,40.959,25.351,55.868,16.984c-6.062-10.659-12.132-21.335-18.794-33.05
		c11.816,0,22.099-0.104,32.373,0.135c1.231,0.028,2.738,1.699,3.569,2.968C135.192,205.839,137.247,209.598,139.496,213.422z"/>
	<path fill="#090909" d="M25.196,22.636c1.621,0,3.243,0,4.864,0
		c151.645-0.003,303.29,0.026,454.936-0.126c6.134-0.006,9.431,2.271,11.884,7.628c12.136,26.499,24.504,52.892,36.767,79.333
		c0.542,1.167,0.854,2.44,1.578,4.559c-7.467,0-14.364,0.226-21.222-0.198c-1.304-0.081-2.799-2.562-3.612-4.225
		c-10.24-20.95-20.475-41.905-30.445-62.985c-2.01-4.25-4.563-5.622-9.219-5.617C328.914,41.133,187.1,41.062,45.287,41.284
		c-7.141,0.012-12.103-1.494-15.226-8.163c-1.502-3.209-3.815-6.038-5.763-9.039C24.598,23.6,24.896,23.118,25.196,22.636z"/>
	<path fill="#090909" d="M694.089,255.045c-12.901,8.113-26.256,9.274-40.05,4.536
		c-9.573-3.289-17.249-9.224-22.929-17.69c-11.841-17.649-10.712-43.223,2.693-59.914c14.421-17.957,32.613-20.792,61.155-9.301
		c-0.058-6.235,4.216-5.837,8.489-5.676c3.827,0.145,7.679,0.259,11.492-0.011c4.231-0.3,5.397,1.475,5.379,5.522
		c-0.132,28.825,0.008,57.652-0.149,86.478c-0.027,4.961-0.624,10.015-1.71,14.857c-3.54,15.788-13.243,26.417-28.617,31.178
		c-21.753,6.735-41.826,3.017-59.612-11.434c-5.297-4.303-5.13-4.806-0.413-9.598c2.803-2.847,5.681-5.644,8.241-8.7
		c2.573-3.072,4.49-2.824,7.254-0.04c7.186,7.239,16.185,10.367,26.282,10.084c12.85-0.361,20.488-7.08,22.422-19.747
		C694.503,262.401,694.089,259.073,694.089,255.045z M694.502,213.763c0-3.66,0.192-7.334-0.086-10.973
		c-0.128-1.681-0.803-3.601-1.866-4.883c-6.365-7.673-18.431-11.211-27.656-7.931c-9.98,3.549-14.999,11.17-16.047,21.442
		c-1.071,10.511,3.751,19.976,12.35,24.251c9.918,4.932,19.311,3.534,28.129-2.915c3.746-2.74,5.892-6.102,5.25-11.016
		C694.233,219.123,694.515,216.424,694.502,213.763z"/>
	<path fill="#090909" d="M548.922,47.095c-5.326,0-10.66-0.185-15.975,0.068
		c-3.244,0.154-5.445-0.779-6.821-3.768c-1.254-2.722-2.666-5.371-4.028-8.042c-1.684-3.301-0.894-5.123,3.016-5.068
		c10.487,0.146,20.993-0.035,31.458,0.523c34.345,1.833,67.194,9.762,97.834,25.629c5.722,2.963,11.239,4.27,17.558,4.176
		c16.325-0.24,32.656,0,48.984-0.15c3.746-0.034,6.104,1.146,8.104,4.439c6.828,11.245,13.793,22.42,21.137,33.331
		c1.65,2.453,4.817,4.758,7.674,5.393c31.531,7.014,63.154,13.615,94.697,20.579c2.398,0.529,5.272,2.484,6.399,4.593
		c5.963,11.159,11.484,22.556,17.059,33.919c2.258,4.603,1.644,5.442-3.539,5.515c-1.499,0.021-2.999-0.021-4.498-0.052
		c-16.099-0.324-11.583,2.455-18.496-11.824c-2.177-4.495-3.864-9.259-6.392-13.536c-1.172-1.983-3.624-3.977-5.828-4.467
		c-31.207-6.944-62.461-13.675-93.731-20.324c-3.859-0.821-6.482-2.522-8.529-6.008c-6.241-10.624-12.916-20.992-19.209-31.586
		c-1.836-3.091-4.018-4.339-7.624-4.306c-16.327,0.149-32.658,0.192-48.983-0.05c-3.34-0.05-6.959-0.89-9.939-2.384
		c-22.124-11.084-44.611-21.104-69.459-24.245c-10.229-1.293-20.544-1.907-30.82-2.83C548.952,46.779,548.938,46.937,548.922,47.095
		z"/>
	<path fill="#090909" d="M513.976,172.8c-0.205-5.699,3.122-6.063,7.209-5.822
		c4.146,0.246,8.335,0.268,12.477-0.018c4.196-0.29,5.502,1.372,5.467,5.472c-0.155,18.31-0.065,36.62-0.064,54.931
		c0.001,8.988-0.235,17.985,0.092,26.962c0.18,4.924-1.576,6.523-6.35,6.045c-3.79-0.381-7.652-0.182-11.477-0.05
		c-3.836,0.133-7.596,0.396-7.397-5.921c-12.564,8.491-25.562,9.796-39.142,5.721c-10.248-3.074-18.319-9.24-24.405-18.034
		c-12.252-17.703-11.039-44.131,2.797-60.614C468.058,163.749,488.111,160.721,513.976,172.8z M513.774,213.858
		c0-3.496,0.18-7.006-0.076-10.483c-0.127-1.722-0.668-3.681-1.688-5.027c-6.975-9.211-22.231-12.278-32.124-6.633
		c-11.451,6.533-15.776,22.699-9.254,34.59c6.22,11.34,20.971,15.589,33.033,9.432c6.645-3.392,11.567-7.904,10.16-16.39
		C513.531,217.563,513.783,215.69,513.774,213.858z"/>
	<path fill="#090909" d="M784.058,262.329c-27.712,0.031-49.463-21.102-49.532-48.125
		c-0.07-27.746,21.556-49.189,49.603-49.184c28.036,0.005,49.65,21.101,49.689,48.498
		C833.857,241.391,812.545,262.296,784.058,262.329z M808.172,213.807c-0.017-14.401-10.304-24.985-24.213-24.911
		c-13.595,0.073-23.65,10.65-23.688,24.919c-0.037,13.938,10.439,24.758,23.962,24.745S808.188,227.76,808.172,213.807z"/>
	<path fill="#090909" d="M256.122,254.241c-8.657,6.117-17.288,8.647-26.741,7.964
		c-22.143-1.6-37.787-18.343-38.314-41.568c-0.367-16.143-0.004-32.3-0.141-48.449c-0.033-3.896,1.39-5.388,5.283-5.21
		c4.984,0.227,9.998,0.27,14.979-0.006c4.045-0.225,5.152,1.46,5.109,5.258c-0.152,13.651-0.073,27.305-0.041,40.958
		c0.006,2.493,0.111,4.993,0.319,7.479c1.155,13.795,11.098,20.669,24.466,16.956c10.195-2.832,14.585-8.488,14.588-18.784
		c0.004-15.484,0.125-30.97-0.056-46.452c-0.048-4.104,1.241-5.674,5.414-5.439c5.146,0.288,10.322,0.185,15.479,0.037
		c3.314-0.094,4.883,1.027,4.873,4.563c-0.066,28.139-0.057,56.277-0.005,84.415c0.007,3.253-1.437,4.439-4.56,4.359
		c-4.492-0.115-9.002-0.222-13.481,0.048C259.354,260.606,256.383,259.958,256.122,254.241z"/>
	<path fill="#090909" d="M397.459,262.26c-25.257,0.51-43.757-11.8-51.294-32.233
		c-6.816-18.479-0.706-40.843,14.612-53.485c20.226-16.691,51.079-15.08,69.174,3.459c2.697,2.764,3.1,4.69-0.102,7.238
		c-3.642,2.897-7.12,6.021-10.48,9.243c-2.744,2.633-4.557,2.968-7.718-0.089c-13.515-13.069-34.593-8.462-40.907,8.627
		c-3.931,10.64-0.345,22.704,8.604,28.949c9.582,6.687,22.214,6.093,30.994-1.456c6.824-5.867,6.824-5.867,13.909-0.533
		c2.793,2.103,5.516,4.307,8.399,6.277c2.849,1.947,3.063,3.67,0.721,6.403C423.173,256.562,410.201,262.161,397.459,262.26z"/>
	<path fill="#090909" d="M587.662,174.604c8.861-7.576,18.717-10.205,29.647-9.495
		c3.723,0.241,5.473,1.43,4.652,5.567c-0.905,4.564-1.377,9.228-1.808,13.869c-0.334,3.601-1.478,4.768-5.598,4.734
		c-5.302-0.043-10.979,0.891-15.842,2.949c-7.124,3.015-11.146,8.374-10.746,17.177c0.68,14.965,0.044,29.985,0.259,44.978
		c0.064,4.539-1.339,6.351-5.994,6.021c-4.81-0.34-9.673-0.338-14.486-0.05c-4.232,0.254-5.446-1.433-5.42-5.491
		c0.144-21.326,0.066-42.654,0.065-63.981c0-6.498,0.09-12.998-0.043-19.494c-0.065-3.229,1.223-4.513,4.438-4.387
		c3.993,0.156,7.996,0.04,11.995,0.033C586.198,167.022,586.198,167.02,587.662,174.604z"/>
	<path fill="#090909" d="M329.789,213.858c0.002,13.647-0.164,27.299,0.098,40.942
		c0.085,4.468-1.387,5.865-5.726,5.57c-4.971-0.337-9.986-0.224-14.973-0.037c-3.583,0.134-5.076-1.11-5.063-4.86
		c0.1-27.962,0.096-55.924,0.021-83.885c-0.01-3.523,1.479-4.699,4.81-4.61c5.322,0.142,10.659,0.229,15.975-0.007
		c3.757-0.167,4.942,1.326,4.908,4.944C329.71,185.895,329.787,199.877,329.789,213.858z"/>
	<path fill="#090909" d="M317.31,146.254c-9.477,0.083-16.659-6.818-16.681-16.03
		c-0.022-9.31,6.986-16.313,16.383-16.369c9.292-0.056,16.916,7.212,16.855,16.068C333.805,139.122,326.656,146.171,317.31,146.254z
		"/>
	<path fill="#090909" d="M718.581,115.288c-19.706,0-38.044,0-57.273,0
		c1.177-1.29,1.661-2.091,2.368-2.554c11.13-7.296,22.363-14.437,33.397-21.872c3.57-2.405,5.586-2.248,7.79,1.702
		C708.978,99.935,713.564,107.042,718.581,115.288z"/>
</g>
</svg>
