<?xml version="1.0" encoding="utf-8"?>
<!-- Generator: Adobe Illustrator 16.0.0, SVG Export Plug-In . SVG Version: 6.00 Build 0)  -->
<!DOCTYPE svg PUBLIC "-//W3C//DTD SVG 1.1//EN" "http://www.w3.org/Graphics/SVG/1.1/DTD/svg11.dtd">
<svg version="1.1" id="logoBig" xmlns="http://www.w3.org/2000/svg" xmlns:xlink="http://www.w3.org/1999/xlink" x="0px" y="0px"
	 width="104.822px" height="105.166px" viewBox="-190.795 309.5 104.822 105.166"
	 enable-background="new -190.795 309.5 104.822 105.166" xml:space="preserve">
<g>
	<path fill="#090909" d="M-91.583,414.065c-1.572,0.209-2.447,0.424-3.324,0.427c-5.839,0.024-11.681,0.073-17.518-0.066
		c-1.104-0.025-2.76-0.563-3.178-1.373c-1.364-2.639-2.991-2.317-5.335-1.484c-34.042,12.103-69.852-12.733-69.856-48.988
		c-0.003-22.334,10.777-39.02,31.143-48.092c19.815-8.826,38.967-5.875,55.492,8.331c22.042,18.949,24.237,50.891,5.552,73.326
		c-1.563,1.877-1.515,3.267-0.367,5.167C-96.517,405.383-94.196,409.536-91.583,414.065z M-111.077,380.152
		c8.158-9.18,8.194-27.442-1.542-38.983c-11.913-14.121-31.727-16.409-46.247-5.317c-14.059,10.739-17.12,31.007-6.989,45.545
		c9.529,13.673,28.165,17.432,38.417,11.679c-4.168-7.33-8.342-14.671-12.923-22.727c8.125,0,15.196-0.071,22.261,0.093
		c0.846,0.02,1.883,1.168,2.454,2.041C-114.037,374.938-112.624,377.522-111.077,380.152z"/>
</g>
</svg>
