<?xml version="1.0" encoding="utf-8"?>
<!-- Generator: Adobe Illustrator 16.0.0, SVG Export Plug-In . SVG Version: 6.00 Build 0)  -->
<!DOCTYPE svg PUBLIC "-//W3C//DTD SVG 1.1//EN" "http://www.w3.org/Graphics/SVG/1.1/DTD/svg11.dtd">
<svg version="1.1" id="Icons" xmlns="http://www.w3.org/2000/svg" xmlns:xlink="http://www.w3.org/1999/xlink" x="0px" y="0px"
	 width="612px" height="491.976px" viewBox="0 155.603 612 491.976" enable-background="new 0 155.603 612 491.976"
	 xml:space="preserve">
<path d="M363.375,547.875h-114.75v-36h96.75V261H38.25v-36h325.125c9.941,0,18,8.059,18,18v286.875
	C381.375,539.816,373.316,547.875,363.375,547.875z"/>
<path d="M459,586.125c-31.017,0-56.25-25.233-56.25-56.25s25.233-56.25,56.25-56.25s56.25,25.233,56.25,56.25
	S490.017,586.125,459,586.125z M459,509.625c-11.166,0-20.25,9.084-20.25,20.25s9.084,20.25,20.25,20.25s20.25-9.084,20.25-20.25
	S470.166,509.625,459,509.625z"/>
<path d="M153,586.125c-31.017,0-56.25-25.233-56.25-56.25s25.233-56.25,56.25-56.25s56.25,25.233,56.25,56.25
	S184.017,586.125,153,586.125z M153,509.625c-11.166,0-20.25,9.084-20.25,20.25s9.084,20.25,20.25,20.25s20.25-9.084,20.25-20.25
	S164.166,509.625,153,509.625z"/>
<path d="M554.625,547.875H497.25v-36h39.375v-90.436L469.474,337.5h-88.099v192.375h-36V319.5c0-9.941,8.059-18,18-18h114.75
	c5.468,0,10.64,2.486,14.056,6.755l76.5,95.625c2.554,3.191,3.944,7.157,3.944,11.244v114.75
	C572.625,539.816,564.566,547.875,554.625,547.875z"/>
<rect x="76.5" y="301.5" width="172.125" height="36"/>
<rect x="38.25" y="378" width="172.125" height="36"/>
</svg>
