<?xml version="1.0" encoding="utf-8"?>
<!-- Generator: Adobe Illustrator 16.0.0, SVG Export Plug-In . SVG Version: 6.00 Build 0)  -->
<!DOCTYPE svg PUBLIC "-//W3C//DTD SVG 1.1//EN" "http://www.w3.org/Graphics/SVG/1.1/DTD/svg11.dtd">
<svg version="1.1" id="user" xmlns="http://www.w3.org/2000/svg" xmlns:xlink="http://www.w3.org/1999/xlink" x="0px" y="0px"
	 width="612px" height="680px" viewBox="0 54.5 612 680" enable-background="new 0 54.5 612 680" xml:space="preserve">
<g>
	<g>
		<g>
			<path fill="#000050" d="M305.148,397.131c46.188,0,85.271-17.765,117.248-49.741c31.976-31.977,49.741-71.06,49.741-117.248
				s-17.766-85.271-49.741-117.248c-31.978-31.976-71.06-49.741-117.248-49.741s-81.718,21.318-113.695,53.294
				c-31.977,31.976-49.741,71.06-49.741,117.248c0,46.188,17.765,85.271,49.741,117.248
				C223.43,379.366,262.512,397.131,305.148,397.131z"/>
			<path fill="#000050" d="M607.15,567.673c0-14.212-3.555-28.423-7.107-46.188c-3.552-17.764-7.104-31.976-10.658-46.188
				c-3.554-14.212-10.658-28.425-17.764-42.635c-7.107-14.212-17.765-24.872-24.872-35.53
				c-10.658-10.659-21.317-17.765-35.529-21.318c-14.212-7.106-31.978-7.106-46.188-7.106c-3.554,0-7.107,3.553-17.765,10.659
				c-10.659,7.106-21.319,14.212-31.978,21.318c-10.659,7.104-28.425,14.212-46.188,21.316c-17.765,7.105-39.083,10.66-56.848,10.66
				c-17.764,0-39.082-3.555-56.847-10.66c-17.765-7.104-35.53-14.212-46.189-21.316c-10.658-7.106-21.317-14.212-31.976-21.318
				c-14.212-7.106-21.318-10.659-24.871-10.659c-17.765,0-31.977,3.553-46.188,7.106c-14.212,7.106-24.871,14.211-35.53,21.318
				c-10.659,10.658-17.765,21.318-24.871,35.53c-10.658,14.21-17.764,28.423-21.317,42.635
				c-3.553,14.213-7.106,28.425-10.659,46.188c-3.553,17.766-3.553,31.977-7.105,46.188c0,14.212,0,28.424,0,42.637
				c0,35.529,10.659,60.399,31.976,81.716c17.765,21.318,46.188,31.978,81.718,31.978h373.06c35.53,0,60.402-10.659,81.719-28.425
				c21.318-21.316,31.978-46.187,31.978-81.717C607.15,599.649,607.15,581.885,607.15,567.673z"/>
		</g>
	</g>
</g>
</svg>
